<?xml version="1.0" standalone="no"?>
<!DOCTYPE svg PUBLIC "-//W3C//DTD SVG 20010904//EN"
 "http://www.w3.org/TR/2001/REC-SVG-20010904/DTD/svg10.dtd">
<svg version="1.0" xmlns="http://www.w3.org/2000/svg"
 width="118.000000pt" height="118.000000pt" viewBox="0 0 118.000000 118.000000"
 preserveAspectRatio="xMidYMid meet">
<metadata>
Created by potrace 1.11, written by Peter Selinger 2001-2013
</metadata>
<g transform="translate(0.000000,118.000000) scale(0.100000,-0.100000)"
fill="#000000" stroke="none">
<path d="M460 1141 c0 -8 -63 -36 -74 -33 -5 2 -6 -6 -3 -18 5 -20 -8 -29 -15
-9 -2 6 -14 4 -33 -6 l-30 -17 28 5 c36 6 35 -1 -3 -14 -16 -6 -30 -17 -30
-24 0 -7 -8 -16 -17 -19 -14 -6 -15 -9 -4 -15 10 -7 9 -10 -8 -16 -11 -3 -21
-11 -21 -17 0 -6 -3 -8 -6 -5 -4 4 -1 13 5 21 10 12 9 14 -4 12 -38 -6 -71
-124 -53 -190 4 -16 10 -52 13 -80 8 -74 12 -82 46 -96 17 -7 35 -25 41 -39 8
-19 12 -22 16 -11 9 25 40 47 64 46 17 -1 27 -12 41 -51 28 -77 56 -100 119
-97 74 2 122 50 142 145 9 40 34 33 55 -15 31 -69 64 -98 114 -97 23 0 51 4
62 9 13 5 1 6 -32 3 -62 -7 -91 8 -116 59 -19 38 -9 55 23 38 16 -9 25 -9 33
-1 8 8 8 11 -1 11 -7 0 -12 3 -12 8 0 4 21 5 46 3 40 -3 45 -1 42 15 -2 12
-12 19 -25 18 -25 -1 -26 18 -1 28 27 11 58 -2 58 -26 0 -17 2 -18 10 -6 8 13
11 11 16 -7 8 -28 24 -30 24 -4 0 11 5 23 10 26 15 9 2 25 -21 25 -11 0 -18 4
-15 9 5 8 -12 8 -34 1 -3 -1 -30 -1 -60 0 -39 0 -66 -5 -94 -21 -50 -26 -91
-30 -136 -12 -42 17 -116 19 -135 3 -25 -21 -118 -40 -162 -34 -39 6 -43 9
-43 35 0 15 -5 31 -11 34 -7 5 -3 16 12 31 12 13 25 21 30 19 4 -3 10 3 12 12
3 13 5 12 6 -5 2 -33 21 -16 21 18 0 18 11 42 28 61 28 31 31 32 125 35 53 1
118 9 144 18 27 8 86 17 132 18 l84 3 30 -70 c16 -38 30 -78 30 -87 1 -9 5
-14 10 -11 5 3 7 29 3 57 -7 59 -35 148 -44 142 -4 -2 -5 16 -3 40 2 29 -1 44
-9 44 -6 0 -9 4 -6 9 8 13 -35 48 -69 55 l-30 7 25 -22 c14 -11 20 -18 13 -15
-6 4 -15 1 -19 -5 -4 -8 -3 -9 5 -5 6 4 14 0 18 -11 3 -10 13 -26 21 -35 8 -9
12 -22 10 -28 -2 -6 -27 12 -55 39 -29 28 -60 51 -70 51 -10 0 -31 9 -48 20
-23 15 -49 20 -110 22 -44 0 -64 3 -45 5 62 8 60 24 -2 22 -32 -1 -58 -5 -58
-8z m123 -56 c-3 -9 -8 -14 -10 -11 -3 3 -2 9 2 15 9 16 15 13 8 -4z m67 1 c0
-3 -4 -8 -10 -11 -5 -3 -10 -1 -10 4 0 6 5 11 10 11 6 0 10 -2 10 -4z m98 -43
c17 -13 32 -29 32 -35 0 -7 -9 -2 -20 10 -11 12 -31 24 -45 28 -13 3 -26 12
-29 19 -7 19 20 9 62 -22z m-178 -2 c0 -5 -7 -12 -16 -15 -14 -5 -15 -4 -4 9
14 17 20 19 20 6z m20 -65 c0 -2 -9 -6 -20 -9 -11 -3 -18 -1 -14 4 5 9 34 13
34 5z m-279 -26 c13 -7 19 -7 19 0 0 5 10 10 23 10 22 -1 22 -1 -3 -14 -14 -8
-28 -12 -31 -10 -4 2 -12 -3 -19 -11 -18 -21 -28 -18 -25 8 4 33 5 33 36 17z
m194 -313 c6 -4 -3 -5 -20 -1 -20 4 -26 3 -17 -4 11 -8 11 -10 -1 -15 -7 -3
-20 -2 -27 3 -9 6 -5 12 16 23 16 8 31 12 34 9 3 -4 10 -10 15 -15z m143 -39
c5 -26 -24 -85 -51 -103 -14 -9 -47 -17 -72 -18 -41 -1 -50 2 -71 28 -33 42
-32 80 4 94 28 11 100 13 85 2 -4 -3 -9 -12 -11 -19 -1 -8 14 -4 40 12 47 28
71 30 76 4z"/>
<path d="M280 939 c0 -5 5 -7 10 -4 6 3 10 8 10 11 0 2 -4 4 -10 4 -5 0 -10
-5 -10 -11z"/>
<path d="M260 524 c0 -8 5 -12 10 -9 6 4 8 11 5 16 -9 14 -15 11 -15 -7z"/>
<path d="M649 429 l-24 -5 25 -8 c14 -4 35 -12 47 -18 27 -13 53 -4 53 19 0
15 -8 18 -38 18 -22 0 -50 -2 -63 -6z"/>
<path d="M726 343 c-1 -2 -41 -6 -87 -9 -89 -7 -122 -24 -66 -36 17 -3 36 -3
42 2 5 4 28 11 50 14 22 4 57 9 79 13 26 4 41 2 46 -7 7 -11 14 -11 34 -2 43
19 30 30 -34 29 -34 -1 -62 -3 -64 -4z"/>
<path d="M735 250 c-22 -10 -35 -19 -30 -19 6 -1 3 -6 -5 -12 -12 -8 -10 -9
10 -5 14 3 32 6 40 7 8 0 4 5 -10 9 -22 7 -23 8 -4 9 12 1 27 8 34 16 15 18
15 18 -35 -5z"/>
<path d="M786 93 c-4 -4 -44 -9 -89 -10 -130 -3 -122 -2 -106 -18 8 -8 39 -21
69 -28 51 -14 56 -13 72 3 9 10 30 24 47 31 17 8 31 17 31 21 0 10 -14 10 -24
1z"/>
</g>
</svg>
